<?xml version="1.0" encoding="UTF-8" standalone="no"?>
<svg version="1.1" xmlns="http://www.w3.org/2000/svg" xmlns:xlink="http://www.w3.org/1999/xlink" xmlns:sketch="http://www.bohemiancoding.com/sketch/ns">
  <g id="Page-1" stroke="none" stroke-width="1" fill="none" fill-rule="evenodd" sketch:type="MSPage">
    <g id="IPAD" sketch:type="MSLayerGroup" stroke="#e0e0e0">

      <path d="M202.986,317 L12.097,317 C5.462,317 0.083,311.623 0.083,304.99 L0.083,12.093 C0.083,5.46 5.461,0.083 12.097,0.083 L202.986,0.083 C209.622,0.083 215,5.46 215,12.093 L215,304.99 C215,311.623 209.622,317 202.986,317 Z" id="bezel" stroke-width="1" fill="#FDFDFD" sketch:type="MSShapeGroup"></path>

      <path d="M202.986,317 L12.097,317 C5.462,317 0.083,311.623 0.083,304.99 L0.083,12.093 C0.083,5.46 5.461,0.083 12.097,0.083 L202.986,0.083 C209.622,0.083 215,5.46 215,12.093 L215,304.99 C215,311.623 209.622,317 202.986,317 Z" id="bezel-2" stroke-width="1" fill="#FFFFFF" sketch:type="MSShapeGroup"></path>

      <rect id="screen" fill="#FFFFFF" sketch:type="MSShapeGroup" x="17" y="32" width="181.999" height="252.917"></rect>

      <circle id="lock" cx="108.021" cy="300.021" r="8.021"></circle>
      <circle id="camera" cx="106.99" cy="16.99" r="2.99"></circle>
    </g>
  </g>
</svg>
