<?xml version="1.0" encoding="UTF-8" standalone="no"?>
<svg viewBox="0 0 77 70" version="1.1" xmlns="http://www.w3.org/2000/svg" xmlns:xlink="http://www.w3.org/1999/xlink" xmlns:sketch="http://www.bohemiancoding.com/sketch/ns">
    <!-- Generator: Sketch 3.2.2 (9983) - http://www.bohemiancoding.com/sketch -->
    <title>menu-burger 2</title>
    <desc>Created with Sketch.</desc>
    <defs></defs>
    <g id="Page-1" stroke="none" stroke-width="1" fill="none" fill-rule="evenodd" sketch:type="MSPage">
        <g id="menu-burger" sketch:type="MSLayerGroup" transform="translate(1.000000, 1.000000)" stroke-width="2" stroke="#5d9cec">
            <g id="Page-1" sketch:type="MSShapeGroup">
                <g id="burger">
                    <path d="M0.597317935,56.0565 L74.4353886,56.0565 L74.4353886,61.84275 C74.4353886,65.0257348 71.4649565,67.629 67.8330408,67.629 L7.19961685,67.629 C3.56770109,67.629 0.597269022,65.0257348 0.597269022,61.84275 L0.597269022,56.0565 L0.597317935,56.0565 L0.597317935,56.0565 Z" id="bun"></path>
                    <path d="M0.630057065,40.7371 L33.6600815,40.7371 L45.1971196,48.9245 L52.0064674,40.7371 L74.4691304,40.7371 L74.4691304,52.3096 L0.630057065,52.3096 L0.630057065,40.7371 L0.630057065,40.7371 Z" id="layer"></path>
                    <rect id="layer" x="0.531847826" y="31.9241" width="73.8379076" height="4.958"></rect>
                    <path d="M0.53088587,28.0649 C0.581917582,-8.2791 74.4199891,-8.4397 74.4373533,28.0649 L0.53088587,28.0649 L0.53088587,28.0649 Z M61.1615847,19.5783937 C62.5950361,19.5783937 63.7564672,20.7525528 63.7564672,22.20063 C63.7564672,23.6478083 62.5950436,24.821975 61.1615847,24.821975 C59.7281333,24.821975 58.5658199,23.6478159 58.5658199,22.20063 C58.5658199,20.7525603 59.7281259,19.5783937 61.1615847,19.5783937 L61.1615847,19.5783937 L61.1615847,19.5783937 Z M50.5445146,16.5567661 C51.977966,16.5567661 53.1402795,17.7309253 53.1402795,19.1790025 C53.1402795,20.6261808 51.9779735,21.8003475 50.5445146,21.8003475 C49.1110632,21.8003475 47.9496321,20.6261883 47.9496321,19.1790025 C47.9496321,17.7309328 49.1110557,16.5567661 50.5445146,16.5567661 L50.5445146,16.5567661 L50.5445146,16.5567661 Z M56.3978291,10.8093738 C57.8312805,10.8093738 58.9927116,11.9835329 58.9927116,13.4316101 C58.9927116,14.8796798 57.831288,16.0538465 56.3978291,16.0538465 C54.9643777,16.0538465 53.8020642,14.8796873 53.8020642,13.4316101 C53.8020642,11.9835404 54.9643702,10.8093738 56.3978291,10.8093738 L56.3978291,10.8093738 L56.3978291,10.8093738 Z M39.0683817,18.8229868 C40.5018331,18.8229868 41.6632642,19.9971459 41.6632642,21.4452231 C41.6632642,22.8924014 40.5018406,24.0665681 39.0683817,24.0665681 C37.6349303,24.0665681 36.4726168,22.892409 36.4726168,21.4452231 C36.4726168,19.9971535 37.6349228,18.8229868 39.0683817,18.8229868 L39.0683817,18.8229868 L39.0683817,18.8229868 Z M45.6771031,9.29856 C47.1096721,9.29856 48.2719856,10.4727191 48.2719856,11.9207963 C48.2719856,13.368866 47.1096796,14.5430327 45.6771031,14.5430327 C44.2436517,14.5430327 43.0813382,13.3688736 43.0813382,11.9207963 C43.0813382,10.4727267 44.2436442,9.29856 45.6771031,9.29856 L45.6771031,9.29856 L45.6771031,9.29856 Z" id="bun"></path>
                </g>
            </g>
        </g>
    </g>
</svg>
