<svg viewBox="0 0 77 70" xmlns="http://www.w3.org/2000/svg"><title>menu-burger 2</title><desc>Created with Sketch.</desc><g id="Page-1" fill="none" fill-rule="evenodd"><g stroke-width="2" stroke="#5d9cec"><g><g><path d="M1.597 57.056h73.838v5.787c0 3.183-2.97 5.786-6.602 5.786H8.2c-3.632 0-6.603-2.604-6.603-5.787v-5.787z" id="bun"/><path d="M1.63 41.737h33.03l11.537 8.188 6.81-8.188h22.462V53.31H1.63V41.737zM1.532 32.924H75.37v4.958H1.532z"/><path d="M1.53 29.065c.052-36.344 73.89-36.505 73.907 0H1.53zm60.632-8.487c1.433 0 2.594 1.175 2.594 2.623 0 1.448-1.16 2.622-2.594 2.622s-2.596-1.174-2.596-2.62c0-1.45 1.162-2.624 2.596-2.624zm-10.617-3.02c1.433 0 2.595 1.173 2.595 2.62 0 1.448-1.162 2.622-2.595 2.622-1.434 0-2.595-1.174-2.595-2.62 0-1.45 1.16-2.623 2.595-2.623zm5.853-5.75c1.433 0 2.595 1.176 2.595 2.624 0 1.448-1.162 2.622-2.595 2.622-1.434 0-2.596-1.174-2.596-2.622s1.162-2.623 2.596-2.623zm-17.33 8.015c1.434 0 2.595 1.174 2.595 2.622 0 1.447-1.16 2.622-2.595 2.622-1.433 0-2.595-1.175-2.595-2.622 0-1.448 1.162-2.622 2.595-2.622zm6.61-9.524c1.432 0 2.594 1.173 2.594 2.62 0 1.45-1.162 2.623-2.595 2.623-1.433 0-2.596-1.174-2.596-2.622 0-1.447 1.164-2.62 2.597-2.62z"/></g></g></g></g></svg>